<svg width="20" height="20" fill="none" xmlns="http://www.w3.org/2000/svg"><path fill-rule="evenodd" clip-rule="evenodd" d="M10 13.333a.827.827 0 0 1-.533-.193l-5-4.167a.833.833 0 1 1 1.066-1.28l4.476 3.73 4.468-3.596a.834.834 0 0 1 1.046 1.299l-5 4.023a.833.833 0 0 1-.523.184Z" fill="#fff"/><mask id="a" style="mask-type:alpha" maskUnits="userSpaceOnUse" x="4" y="7" width="12" height="7"><path fill-rule="evenodd" clip-rule="evenodd" d="M10 13.333a.827.827 0 0 1-.533-.193l-5-4.167a.833.833 0 1 1 1.066-1.28l4.476 3.73 4.468-3.596a.834.834 0 0 1 1.046 1.299l-5 4.023a.833.833 0 0 1-.523.184Z" fill="#fff"/></mask><g mask="url(#a)"><path fill="#fff" d="M0 0h20v20H0z"/></g></svg>