<svg width="16" height="16" fill="none" xmlns="http://www.w3.org/2000/svg"><path fill-rule="evenodd" clip-rule="evenodd" d="m10.864 6.404-3.046 4a.666.666 0 0 1-.526.263h-.005a.668.668 0 0 1-.524-.256L5.14 8.34a.666.666 0 1 1 1.05-.822l1.09 1.391 2.522-3.313a.667.667 0 0 1 1.06.808ZM8 1.334a6.667 6.667 0 1 0 0 13.333A6.667 6.667 0 0 0 8 1.334Z" fill="#EA7C69"/><mask id="a" style="mask-type:alpha" maskUnits="userSpaceOnUse" x="1" y="1" width="14" height="14"><path fill-rule="evenodd" clip-rule="evenodd" d="m10.864 6.404-3.046 4a.666.666 0 0 1-.526.263h-.005a.668.668 0 0 1-.524-.256L5.14 8.34a.666.666 0 1 1 1.05-.822l1.09 1.391 2.522-3.313a.667.667 0 0 1 1.06.808ZM8 1.334a6.667 6.667 0 1 0 0 13.333A6.667 6.667 0 0 0 8 1.334Z" fill="#fff"/></mask><g mask="url(#a)"><path fill="#EA7C69" d="M0 0h16v16H0z"/></g></svg>